<?xml version="1.0" encoding="UTF-8"?>
<svg width="177px" height="55px" viewBox="0 0 177 55" version="1.1" xmlns="http://www.w3.org/2000/svg" xmlns:xlink="http://www.w3.org/1999/xlink">
    <defs>
        <polygon id="path-1" points="0 0.0440995475 55.1515977 0.0440995475 55.1515977 54.8683982 0 54.8683982"></polygon>
    </defs>
    <g id="Page-1" stroke="none" stroke-width="1" fill="none" fill-rule="evenodd">
        <g id="HOMEPAGE-V4.1-Copy" transform="translate(-789.000000, -69.000000)">
            <g id="Group-8" transform="translate(789.000000, 69.000000)">
                <path d="M38.3189871,43.1221017 L33.7016272,43.1221017 C33.3050962,43.1221017 33.0615773,42.9406699 32.9700701,42.5763152 L31.6904704,36.2147713 C31.5984632,35.8514107 31.3544442,35.6689848 30.9589133,35.6689848 L28.697237,35.6689848 L28.697237,30.0798928 L29.6783135,30.0798928 C30.1658515,30.0798928 30.364367,29.8527303 30.2728599,29.3979083 L28.697237,21.901049 L28.697237,8.58395857 L30.2273563,8.58395857 C30.6228872,8.58395857 30.8669062,8.7658874 30.9589133,9.12924797 L38.8675299,42.4396201 C39.0195417,42.8944421 38.8370275,43.1221017 38.3189871,43.1221017 Z M26.3805565,21.9030373 L24.8049336,29.3979083 C24.7134265,29.8527303 24.9114419,30.0798928 25.39948,30.0798928 L26.3805565,30.0798928 L26.3805565,35.6689848 L24.1188801,35.6689848 C23.7228493,35.6689848 23.4793303,35.8514107 23.3878232,36.2147713 L22.1077234,42.5763152 C22.0162162,42.9406699 21.7721972,43.1221017 21.3761663,43.1221017 L16.7593064,43.1221017 C16.240266,43.1221017 16.0572517,42.8944421 16.2107637,42.4396201 L24.1188801,9.12924797 C24.2108873,8.7658874 24.4544063,8.58395857 24.8504372,8.58395857 L26.3805565,8.58395857 L26.3805565,21.9030373 Z M27.5386467,0 C12.3294611,0 0,12.256336 0,27.3753171 C0,42.4947952 12.3294611,54.7511312 27.5386467,54.7511312 C42.7483324,54.7511312 55.0777935,42.4947952 55.0777935,27.3753171 C55.0777935,12.256336 42.7483324,0 27.5386467,0 Z" id="Fill-1" fill="#4F1339"></path>
                <path d="M158.288041,19.1282092 C158.288041,19.5512186 158.076025,19.7609835 157.651992,19.7609835 L153.108138,19.7609835 C152.683604,19.7609835 152.471588,19.5512186 152.471588,19.1282092 L152.471588,16.5991004 C152.471588,16.2988681 152.36558,16.0423783 152.153563,15.8306251 L152.10856,15.7868826 C151.896043,15.5756265 151.638523,15.470744 151.335999,15.470744 L150.179409,15.470744 L150.179409,9.86872808 L155.016286,9.86872808 C155.31931,9.86872808 155.57633,9.97510176 155.788847,10.1848667 L157.970017,12.3535974 C158.181533,12.5648536 158.288041,12.8208463 158.288041,13.1215757 L158.288041,19.1282092 Z M158.288041,40.9457499 C158.288041,41.2469763 158.181533,41.5034661 157.970017,41.7132311 L155.788847,43.8819618 C155.57633,44.093218 155.31931,44.1981004 155.016286,44.1981004 L150.179409,44.1981004 L150.179409,38.6418152 L151.335999,38.6418152 C151.638523,38.6418152 151.896043,38.5369328 152.10856,38.3256766 L152.153563,38.280443 C152.36558,38.0696839 152.471588,37.8146853 152.471588,37.5129618 L152.471588,30.6468885 C152.471588,30.3461592 152.36558,30.0896694 152.153563,29.8794074 L152.10856,29.8341737 C151.896043,29.6239117 151.638523,29.5180351 151.335999,29.5180351 L150.179409,29.5180351 L150.179409,23.962247 L155.016286,23.962247 C155.31931,23.962247 155.57633,24.0681236 155.788847,24.2778885 L157.970017,26.4471163 C158.181533,26.6568812 158.288041,26.9138681 158.288041,27.2145975 L158.288041,40.9457499 Z M148.225757,15.470744 L147.837227,15.470744 C147.534203,15.470744 147.276183,15.5756265 147.064666,15.7868826 L147.019163,15.8306251 C146.807146,16.0423783 146.701138,16.2988681 146.701138,16.5991004 L146.701138,22.8323994 C146.701138,23.1341229 146.807146,23.3901156 147.019163,23.5998805 L147.064666,23.6461083 C147.276183,23.8573645 147.534203,23.962247 147.837227,23.962247 L148.225757,23.962247 L148.225757,29.5180351 L144.201943,29.5180351 C143.89892,29.5180351 143.6414,29.4121585 143.429383,29.2023935 L141.248213,27.0331657 C141.036197,26.8234008 140.930188,26.5664139 140.930188,26.2646904 L140.930188,13.1215757 C140.930188,12.8208463 141.036197,12.5648536 141.248213,12.3535974 L143.429383,10.1848667 C143.6414,9.97510176 143.89892,9.86872808 144.201943,9.86872808 L148.225757,9.86872808 L148.225757,15.470744 Z M148.225757,44.1981004 L144.201943,44.1981004 C143.89892,44.1981004 143.6414,44.093218 143.429383,43.8819618 L141.248213,41.7132311 C141.036197,41.5034661 140.930188,41.2469763 140.930188,40.9457499 L140.930188,34.9386193 C140.930188,34.5175982 141.141705,34.305845 141.566738,34.305845 L146.065089,34.305845 C146.489122,34.305845 146.701138,34.5175982 146.701138,34.9386193 L146.701138,37.5129618 C146.701138,37.8146853 146.807146,38.0696839 147.019163,38.280443 L147.064666,38.3256766 C147.276183,38.5369328 147.534203,38.6418152 147.837227,38.6418152 L148.225757,38.6418152 L148.225757,44.1981004 Z M149.461353,0.248868778 C134.251668,0.248868778 121.922207,12.5052048 121.922207,27.6246829 C121.922207,42.743664 134.251668,55 149.461353,55 C164.670539,55 177,42.743664 177,27.6246829 C177,12.5052048 164.670539,0.248868778 149.461353,0.248868778 Z" id="Fill-3" fill="#4F1339"></path>
                <g id="Group-7" transform="translate(60.835926, 0.000000)">
                    <mask id="mask-2" fill="white">
                        <use xlink:href="#path-1"></use>
                    </mask>
                    <g id="Clip-6"></g>
                    <path d="M36.0576289,29.934733 L30.4031423,29.934733 L30.4031423,35.556181 L24.7486557,35.556181 L24.7486557,29.934733 L19.0941692,29.934733 L19.0941692,24.4476742 L24.7486557,24.4476742 L24.7486557,18.8272217 L30.4031423,18.8272217 L30.4031423,24.4476742 L36.0576289,24.4476742 L36.0576289,29.934733 Z M27.5756487,0.0440995475 C12.346138,0.0440995475 -0.000300424328,12.3168145 -0.000300424328,27.4564977 C-0.000300424328,42.5956833 12.346138,54.8683982 27.5756487,54.8683982 C42.80566,54.8683982 55.1515977,42.5956833 55.1515977,27.4564977 C55.1515977,12.3168145 42.80566,0.0440995475 27.5756487,0.0440995475 Z" id="Fill-5" fill="#4F1339" mask="url(#mask-2)"></path>
                </g>
            </g>
        </g>
    </g>
</svg>
